# xmcd
#
# Track frame offsets: 
#        150
#        20072
#        31226
#        44006
#        61243
#        77012
#        93439
#        108279
#        124822
#        140762
#        153641
#        166780
#
# Disc length: 2418 seconds
#
# Revision: 0
# Processed by: cddbd v1.5.2PL0 Copyright (c) Steve Scherf et al.
# Submitted via: ExactAudioCopy v1.0b4
#
DISCID=9d09700c
DTITLE=Eric Brace and Peter Cooper - The Comeback Album
DYEAR=2013
DGENRE=Country
TTITLE0=Ancient History
TTITLE1=Ponzi Scheme
TTITLE2=Thompson Street
TTITLE3=Johnson City
TTITLE4=Eric Brace and Peter Cooper, feat. Mac Wiseman, Duane Eddy and Mar
TTITLE4=ty Stuart - Mad
TTITLE5=She Can't Be Herself
TTITLE6=Kissing Booth
TTITLE7=Nobody Knows
TTITLE8=Boxcars
TTITLE9=Carolina
TTITLE10=Sailor
TTITLE11=Rain Just Falls
EXTD=
EXTT0=
EXTT1=
EXTT2=
EXTT3=
EXTT4=
EXTT5=
EXTT6=
EXTT7=
EXTT8=
EXTT9=
EXTT10=
EXTT11=
PLAYORDER=
